<mxfile host="Electron" agent="Mozilla/5.0 (Windows NT 10.0; Win64; x64) AppleWebKit/537.36 (KHTML, like Gecko) draw.io/24.7.17 Chrome/128.0.6613.36 Electron/32.0.1 Safari/537.36" version="24.7.17" pages="2">
  <diagram id="IRjS_Mum45-Qn78JHkpE" name="DIAGRAMA E-R">
    <mxGraphModel dx="794" dy="564" grid="1" gridSize="10" guides="1" tooltips="1" connect="1" arrows="1" fold="1" page="1" pageScale="1" pageWidth="827" pageHeight="1169" math="0" shadow="0">
      <root>
        <mxCell id="0" />
        <mxCell id="1" parent="0" />
        <mxCell id="WYHpssryrQ3IrEPbrYLd-12" style="edgeStyle=orthogonalEdgeStyle;rounded=0;orthogonalLoop=1;jettySize=auto;html=1;exitX=0.5;exitY=1;exitDx=0;exitDy=0;entryX=0.5;entryY=0;entryDx=0;entryDy=0;endArrow=none;endFill=0;" parent="1" source="WYHpssryrQ3IrEPbrYLd-1" target="WYHpssryrQ3IrEPbrYLd-7" edge="1">
          <mxGeometry relative="1" as="geometry" />
        </mxCell>
        <mxCell id="WYHpssryrQ3IrEPbrYLd-43" style="rounded=0;orthogonalLoop=1;jettySize=auto;html=1;exitX=1;exitY=0;exitDx=0;exitDy=0;entryX=0;entryY=1;entryDx=0;entryDy=0;endArrow=none;endFill=0;" parent="1" source="WYHpssryrQ3IrEPbrYLd-1" target="WYHpssryrQ3IrEPbrYLd-41" edge="1">
          <mxGeometry relative="1" as="geometry" />
        </mxCell>
        <mxCell id="WYHpssryrQ3IrEPbrYLd-44" style="edgeStyle=none;rounded=0;orthogonalLoop=1;jettySize=auto;html=1;exitX=1;exitY=1;exitDx=0;exitDy=0;entryX=0;entryY=0;entryDx=0;entryDy=0;endArrow=none;endFill=0;" parent="1" source="WYHpssryrQ3IrEPbrYLd-1" target="WYHpssryrQ3IrEPbrYLd-42" edge="1">
          <mxGeometry relative="1" as="geometry" />
        </mxCell>
        <mxCell id="WYHpssryrQ3IrEPbrYLd-45" style="edgeStyle=none;rounded=0;orthogonalLoop=1;jettySize=auto;html=1;exitX=1;exitY=0.25;exitDx=0;exitDy=0;entryX=0;entryY=0.5;entryDx=0;entryDy=0;endArrow=none;endFill=0;" parent="1" source="WYHpssryrQ3IrEPbrYLd-1" target="WYHpssryrQ3IrEPbrYLd-39" edge="1">
          <mxGeometry relative="1" as="geometry" />
        </mxCell>
        <mxCell id="WYHpssryrQ3IrEPbrYLd-46" style="edgeStyle=none;rounded=0;orthogonalLoop=1;jettySize=auto;html=1;exitX=1;exitY=0.75;exitDx=0;exitDy=0;entryX=0;entryY=0.5;entryDx=0;entryDy=0;endArrow=none;endFill=0;" parent="1" source="WYHpssryrQ3IrEPbrYLd-1" target="WYHpssryrQ3IrEPbrYLd-40" edge="1">
          <mxGeometry relative="1" as="geometry" />
        </mxCell>
        <mxCell id="WYHpssryrQ3IrEPbrYLd-1" value="JUGADOR" style="whiteSpace=wrap;html=1;align=center;" parent="1" vertex="1">
          <mxGeometry x="120" y="360" width="100" height="40" as="geometry" />
        </mxCell>
        <mxCell id="WYHpssryrQ3IrEPbrYLd-9" style="edgeStyle=orthogonalEdgeStyle;rounded=0;orthogonalLoop=1;jettySize=auto;html=1;exitX=1;exitY=0.5;exitDx=0;exitDy=0;entryX=0;entryY=0.5;entryDx=0;entryDy=0;endArrow=none;endFill=0;" parent="1" source="WYHpssryrQ3IrEPbrYLd-2" target="WYHpssryrQ3IrEPbrYLd-5" edge="1">
          <mxGeometry relative="1" as="geometry" />
        </mxCell>
        <mxCell id="WYHpssryrQ3IrEPbrYLd-21" style="rounded=0;orthogonalLoop=1;jettySize=auto;html=1;exitX=0.5;exitY=0;exitDx=0;exitDy=0;entryX=0.5;entryY=1;entryDx=0;entryDy=0;endArrow=none;endFill=0;" parent="1" source="WYHpssryrQ3IrEPbrYLd-2" target="WYHpssryrQ3IrEPbrYLd-20" edge="1">
          <mxGeometry relative="1" as="geometry" />
        </mxCell>
        <mxCell id="WYHpssryrQ3IrEPbrYLd-2" value="EQUIPO" style="whiteSpace=wrap;html=1;align=center;" parent="1" vertex="1">
          <mxGeometry x="360" y="200" width="100" height="40" as="geometry" />
        </mxCell>
        <mxCell id="WYHpssryrQ3IrEPbrYLd-24" style="edgeStyle=orthogonalEdgeStyle;rounded=0;orthogonalLoop=1;jettySize=auto;html=1;exitX=0;exitY=1;exitDx=0;exitDy=0;entryX=0.5;entryY=0;entryDx=0;entryDy=0;endArrow=none;endFill=0;" parent="1" source="WYHpssryrQ3IrEPbrYLd-3" target="WYHpssryrQ3IrEPbrYLd-23" edge="1">
          <mxGeometry relative="1" as="geometry" />
        </mxCell>
        <mxCell id="WYHpssryrQ3IrEPbrYLd-27" style="edgeStyle=orthogonalEdgeStyle;rounded=0;orthogonalLoop=1;jettySize=auto;html=1;exitX=0.25;exitY=1;exitDx=0;exitDy=0;entryX=0.5;entryY=0;entryDx=0;entryDy=0;endArrow=none;endFill=0;startArrow=none;" parent="1" source="WYHpssryrQ3IrEPbrYLd-35" target="WYHpssryrQ3IrEPbrYLd-26" edge="1">
          <mxGeometry relative="1" as="geometry" />
        </mxCell>
        <mxCell id="WYHpssryrQ3IrEPbrYLd-29" style="edgeStyle=orthogonalEdgeStyle;rounded=0;orthogonalLoop=1;jettySize=auto;html=1;exitX=0.5;exitY=1;exitDx=0;exitDy=0;entryX=0.5;entryY=0;entryDx=0;entryDy=0;endArrow=none;endFill=0;" parent="1" source="WYHpssryrQ3IrEPbrYLd-3" target="WYHpssryrQ3IrEPbrYLd-28" edge="1">
          <mxGeometry relative="1" as="geometry" />
        </mxCell>
        <mxCell id="WYHpssryrQ3IrEPbrYLd-3" value="PABELLON" style="whiteSpace=wrap;html=1;align=center;" parent="1" vertex="1">
          <mxGeometry x="600" y="360" width="100" height="40" as="geometry" />
        </mxCell>
        <mxCell id="WYHpssryrQ3IrEPbrYLd-59" style="edgeStyle=none;rounded=0;orthogonalLoop=1;jettySize=auto;html=1;exitX=0.5;exitY=1;exitDx=0;exitDy=0;entryX=0.5;entryY=0;entryDx=0;entryDy=0;endArrow=none;endFill=0;" parent="1" source="WYHpssryrQ3IrEPbrYLd-4" target="WYHpssryrQ3IrEPbrYLd-57" edge="1">
          <mxGeometry relative="1" as="geometry" />
        </mxCell>
        <mxCell id="Fvk5Qw4wSfaVSMRYr25U-2" style="edgeStyle=orthogonalEdgeStyle;rounded=0;orthogonalLoop=1;jettySize=auto;html=1;exitX=1;exitY=0.5;exitDx=0;exitDy=0;entryX=0;entryY=0.5;entryDx=0;entryDy=0;endArrow=none;endFill=0;" edge="1" parent="1" source="WYHpssryrQ3IrEPbrYLd-4" target="Fvk5Qw4wSfaVSMRYr25U-1">
          <mxGeometry relative="1" as="geometry" />
        </mxCell>
        <mxCell id="WYHpssryrQ3IrEPbrYLd-4" value="PARTIDO" style="whiteSpace=wrap;html=1;align=center;" parent="1" vertex="1">
          <mxGeometry x="360" y="520" width="100" height="40" as="geometry" />
        </mxCell>
        <mxCell id="WYHpssryrQ3IrEPbrYLd-10" style="edgeStyle=orthogonalEdgeStyle;rounded=0;orthogonalLoop=1;jettySize=auto;html=1;exitX=0.5;exitY=1;exitDx=0;exitDy=0;entryX=0.5;entryY=0;entryDx=0;entryDy=0;endArrow=none;endFill=0;" parent="1" source="WYHpssryrQ3IrEPbrYLd-5" target="WYHpssryrQ3IrEPbrYLd-3" edge="1">
          <mxGeometry relative="1" as="geometry" />
        </mxCell>
        <mxCell id="WYHpssryrQ3IrEPbrYLd-5" value="SER&lt;br&gt;SEDE" style="shape=rhombus;perimeter=rhombusPerimeter;whiteSpace=wrap;html=1;align=center;" parent="1" vertex="1">
          <mxGeometry x="590" y="190" width="120" height="60" as="geometry" />
        </mxCell>
        <mxCell id="WYHpssryrQ3IrEPbrYLd-8" style="edgeStyle=orthogonalEdgeStyle;rounded=0;orthogonalLoop=1;jettySize=auto;html=1;exitX=1;exitY=0.5;exitDx=0;exitDy=0;entryX=0;entryY=0.5;entryDx=0;entryDy=0;endArrow=none;endFill=0;" parent="1" source="WYHpssryrQ3IrEPbrYLd-6" target="WYHpssryrQ3IrEPbrYLd-2" edge="1">
          <mxGeometry relative="1" as="geometry" />
        </mxCell>
        <mxCell id="WYHpssryrQ3IrEPbrYLd-11" style="edgeStyle=orthogonalEdgeStyle;rounded=0;orthogonalLoop=1;jettySize=auto;html=1;exitX=0.5;exitY=1;exitDx=0;exitDy=0;entryX=0.5;entryY=0;entryDx=0;entryDy=0;endArrow=none;endFill=0;" parent="1" source="WYHpssryrQ3IrEPbrYLd-6" target="WYHpssryrQ3IrEPbrYLd-1" edge="1">
          <mxGeometry relative="1" as="geometry" />
        </mxCell>
        <mxCell id="WYHpssryrQ3IrEPbrYLd-6" value="ESTAR&lt;br&gt;FORMADO" style="shape=rhombus;perimeter=rhombusPerimeter;whiteSpace=wrap;html=1;align=center;" parent="1" vertex="1">
          <mxGeometry x="110" y="190" width="120" height="60" as="geometry" />
        </mxCell>
        <mxCell id="WYHpssryrQ3IrEPbrYLd-13" style="edgeStyle=orthogonalEdgeStyle;rounded=0;orthogonalLoop=1;jettySize=auto;html=1;exitX=1;exitY=0.5;exitDx=0;exitDy=0;entryX=0;entryY=0.5;entryDx=0;entryDy=0;endArrow=none;endFill=0;" parent="1" source="WYHpssryrQ3IrEPbrYLd-7" target="WYHpssryrQ3IrEPbrYLd-4" edge="1">
          <mxGeometry relative="1" as="geometry" />
        </mxCell>
        <mxCell id="WYHpssryrQ3IrEPbrYLd-63" style="edgeStyle=none;rounded=0;orthogonalLoop=1;jettySize=auto;html=1;exitX=0.5;exitY=1;exitDx=0;exitDy=0;entryX=0.5;entryY=0;entryDx=0;entryDy=0;fontSize=9;endArrow=none;endFill=0;" parent="1" source="WYHpssryrQ3IrEPbrYLd-7" target="WYHpssryrQ3IrEPbrYLd-61" edge="1">
          <mxGeometry relative="1" as="geometry" />
        </mxCell>
        <mxCell id="WYHpssryrQ3IrEPbrYLd-7" value="JUGAR" style="shape=rhombus;perimeter=rhombusPerimeter;whiteSpace=wrap;html=1;align=center;" parent="1" vertex="1">
          <mxGeometry x="110" y="510" width="120" height="60" as="geometry" />
        </mxCell>
        <mxCell id="WYHpssryrQ3IrEPbrYLd-14" value="(1,n)" style="text;html=1;strokeColor=none;fillColor=none;align=center;verticalAlign=middle;whiteSpace=wrap;rounded=0;" parent="1" vertex="1">
          <mxGeometry x="614" y="297" width="30" height="10" as="geometry" />
        </mxCell>
        <mxCell id="WYHpssryrQ3IrEPbrYLd-15" value="(1,1)" style="text;html=1;strokeColor=none;fillColor=none;align=center;verticalAlign=middle;whiteSpace=wrap;rounded=0;" parent="1" vertex="1">
          <mxGeometry x="519" y="204" width="30" height="10" as="geometry" />
        </mxCell>
        <mxCell id="WYHpssryrQ3IrEPbrYLd-16" value="(1,n)" style="text;html=1;strokeColor=none;fillColor=none;align=center;verticalAlign=middle;whiteSpace=wrap;rounded=0;" parent="1" vertex="1">
          <mxGeometry x="280" y="204" width="30" height="10" as="geometry" />
        </mxCell>
        <mxCell id="WYHpssryrQ3IrEPbrYLd-17" value="(1,1)" style="text;html=1;strokeColor=none;fillColor=none;align=center;verticalAlign=middle;whiteSpace=wrap;rounded=0;" parent="1" vertex="1">
          <mxGeometry x="177" y="292" width="30" height="10" as="geometry" />
        </mxCell>
        <mxCell id="WYHpssryrQ3IrEPbrYLd-18" value="(0,n)" style="text;html=1;strokeColor=none;fillColor=none;align=center;verticalAlign=middle;whiteSpace=wrap;rounded=0;" parent="1" vertex="1">
          <mxGeometry x="178" y="454" width="30" height="10" as="geometry" />
        </mxCell>
        <mxCell id="WYHpssryrQ3IrEPbrYLd-19" value="(1,n)" style="text;html=1;strokeColor=none;fillColor=none;align=center;verticalAlign=middle;whiteSpace=wrap;rounded=0;" parent="1" vertex="1">
          <mxGeometry x="271" y="523" width="30" height="10" as="geometry" />
        </mxCell>
        <mxCell id="WYHpssryrQ3IrEPbrYLd-20" value="" style="ellipse;whiteSpace=wrap;html=1;aspect=fixed;fillColor=#000000;" parent="1" vertex="1">
          <mxGeometry x="405" y="155" width="10" height="10" as="geometry" />
        </mxCell>
        <mxCell id="WYHpssryrQ3IrEPbrYLd-22" value="Nombre" style="text;html=1;strokeColor=none;fillColor=none;align=center;verticalAlign=middle;whiteSpace=wrap;rounded=0;" parent="1" vertex="1">
          <mxGeometry x="387" y="142" width="50" height="10" as="geometry" />
        </mxCell>
        <mxCell id="WYHpssryrQ3IrEPbrYLd-23" value="" style="ellipse;whiteSpace=wrap;html=1;aspect=fixed;" parent="1" vertex="1">
          <mxGeometry x="595" y="460" width="10" height="10" as="geometry" />
        </mxCell>
        <mxCell id="WYHpssryrQ3IrEPbrYLd-25" value="Capacidad" style="text;html=1;strokeColor=none;fillColor=none;align=center;verticalAlign=middle;whiteSpace=wrap;rounded=0;" parent="1" vertex="1">
          <mxGeometry x="570" y="474" width="60" height="10" as="geometry" />
        </mxCell>
        <mxCell id="WYHpssryrQ3IrEPbrYLd-26" value="" style="ellipse;whiteSpace=wrap;html=1;aspect=fixed;" parent="1" vertex="1">
          <mxGeometry x="620" y="440" width="10" height="10" as="geometry" />
        </mxCell>
        <mxCell id="WYHpssryrQ3IrEPbrYLd-28" value="" style="ellipse;whiteSpace=wrap;html=1;aspect=fixed;" parent="1" vertex="1">
          <mxGeometry x="645" y="420" width="10" height="10" as="geometry" />
        </mxCell>
        <mxCell id="WYHpssryrQ3IrEPbrYLd-30" value="Nombre" style="text;html=1;strokeColor=none;fillColor=none;align=center;verticalAlign=middle;whiteSpace=wrap;rounded=0;" parent="1" vertex="1">
          <mxGeometry x="613" y="450" width="45" height="16" as="geometry" />
        </mxCell>
        <mxCell id="WYHpssryrQ3IrEPbrYLd-31" value="Ciudad" style="text;html=1;strokeColor=none;fillColor=none;align=center;verticalAlign=middle;whiteSpace=wrap;rounded=0;" parent="1" vertex="1">
          <mxGeometry x="640" y="432" width="40" height="10" as="geometry" />
        </mxCell>
        <mxCell id="WYHpssryrQ3IrEPbrYLd-34" style="edgeStyle=orthogonalEdgeStyle;rounded=0;orthogonalLoop=1;jettySize=auto;html=1;exitX=0;exitY=0.5;exitDx=0;exitDy=0;endArrow=none;endFill=0;startArrow=none;" parent="1" source="WYHpssryrQ3IrEPbrYLd-37" edge="1">
          <mxGeometry relative="1" as="geometry">
            <mxPoint x="625.0873786407766" y="410" as="targetPoint" />
          </mxGeometry>
        </mxCell>
        <mxCell id="WYHpssryrQ3IrEPbrYLd-32" value="" style="ellipse;whiteSpace=wrap;html=1;aspect=fixed;fillColor=#000000;" parent="1" vertex="1">
          <mxGeometry x="690" y="405" width="10" height="10" as="geometry" />
        </mxCell>
        <mxCell id="WYHpssryrQ3IrEPbrYLd-35" value="" style="ellipse;whiteSpace=wrap;html=1;aspect=fixed;fillColor=#000000;" parent="1" vertex="1">
          <mxGeometry x="622.5" y="407.5" width="5" height="5" as="geometry" />
        </mxCell>
        <mxCell id="WYHpssryrQ3IrEPbrYLd-36" value="" style="edgeStyle=orthogonalEdgeStyle;rounded=0;orthogonalLoop=1;jettySize=auto;html=1;exitX=0.25;exitY=1;exitDx=0;exitDy=0;entryX=0.5;entryY=0;entryDx=0;entryDy=0;endArrow=none;endFill=0;" parent="1" source="WYHpssryrQ3IrEPbrYLd-3" target="WYHpssryrQ3IrEPbrYLd-35" edge="1">
          <mxGeometry relative="1" as="geometry">
            <mxPoint x="625" y="400" as="sourcePoint" />
            <mxPoint x="625" y="440" as="targetPoint" />
          </mxGeometry>
        </mxCell>
        <mxCell id="WYHpssryrQ3IrEPbrYLd-37" value="" style="ellipse;whiteSpace=wrap;html=1;aspect=fixed;fillColor=#000000;" parent="1" vertex="1">
          <mxGeometry x="647.5" y="407.5" width="5" height="5" as="geometry" />
        </mxCell>
        <mxCell id="WYHpssryrQ3IrEPbrYLd-38" value="" style="edgeStyle=orthogonalEdgeStyle;rounded=0;orthogonalLoop=1;jettySize=auto;html=1;exitX=0;exitY=0.5;exitDx=0;exitDy=0;endArrow=none;endFill=0;" parent="1" source="WYHpssryrQ3IrEPbrYLd-32" target="WYHpssryrQ3IrEPbrYLd-37" edge="1">
          <mxGeometry relative="1" as="geometry">
            <mxPoint x="625.0873786407766" y="410" as="targetPoint" />
            <mxPoint x="689.9999999999937" y="410" as="sourcePoint" />
          </mxGeometry>
        </mxCell>
        <mxCell id="WYHpssryrQ3IrEPbrYLd-39" value="" style="ellipse;whiteSpace=wrap;html=1;aspect=fixed;" parent="1" vertex="1">
          <mxGeometry x="250" y="365" width="10" height="10" as="geometry" />
        </mxCell>
        <mxCell id="WYHpssryrQ3IrEPbrYLd-40" value="" style="ellipse;whiteSpace=wrap;html=1;aspect=fixed;" parent="1" vertex="1">
          <mxGeometry x="250" y="385" width="10" height="10" as="geometry" />
        </mxCell>
        <mxCell id="WYHpssryrQ3IrEPbrYLd-41" value="" style="ellipse;whiteSpace=wrap;html=1;aspect=fixed;" parent="1" vertex="1">
          <mxGeometry x="230" y="340" width="10" height="10" as="geometry" />
        </mxCell>
        <mxCell id="WYHpssryrQ3IrEPbrYLd-42" value="" style="ellipse;whiteSpace=wrap;html=1;aspect=fixed;" parent="1" vertex="1">
          <mxGeometry x="230" y="410" width="10" height="10" as="geometry" />
        </mxCell>
        <mxCell id="WYHpssryrQ3IrEPbrYLd-47" value="Nombre" style="text;html=1;strokeColor=none;fillColor=none;align=center;verticalAlign=middle;whiteSpace=wrap;rounded=0;" parent="1" vertex="1">
          <mxGeometry x="240" y="340" width="50" height="10" as="geometry" />
        </mxCell>
        <mxCell id="WYHpssryrQ3IrEPbrYLd-48" value="Dorsal" style="text;html=1;strokeColor=none;fillColor=none;align=center;verticalAlign=middle;whiteSpace=wrap;rounded=0;" parent="1" vertex="1">
          <mxGeometry x="262" y="365" width="40" height="10" as="geometry" />
        </mxCell>
        <mxCell id="WYHpssryrQ3IrEPbrYLd-49" value="Estatura" style="text;html=1;strokeColor=none;fillColor=none;align=center;verticalAlign=middle;whiteSpace=wrap;rounded=0;" parent="1" vertex="1">
          <mxGeometry x="262" y="385" width="50" height="8" as="geometry" />
        </mxCell>
        <mxCell id="WYHpssryrQ3IrEPbrYLd-50" value="Posición" style="text;html=1;strokeColor=none;fillColor=none;align=center;verticalAlign=middle;whiteSpace=wrap;rounded=0;" parent="1" vertex="1">
          <mxGeometry x="240" y="412.5" width="55" height="7" as="geometry" />
        </mxCell>
        <mxCell id="WYHpssryrQ3IrEPbrYLd-52" style="edgeStyle=none;rounded=0;orthogonalLoop=1;jettySize=auto;html=1;exitX=1;exitY=1;exitDx=0;exitDy=0;endArrow=none;endFill=0;startArrow=none;" parent="1" source="WYHpssryrQ3IrEPbrYLd-53" target="WYHpssryrQ3IrEPbrYLd-55" edge="1">
          <mxGeometry relative="1" as="geometry">
            <mxPoint x="240" y="370" as="targetPoint" />
          </mxGeometry>
        </mxCell>
        <mxCell id="WYHpssryrQ3IrEPbrYLd-51" value="" style="ellipse;whiteSpace=wrap;html=1;aspect=fixed;fillColor=#000000;" parent="1" vertex="1">
          <mxGeometry x="205" y="335" width="10" height="10" as="geometry" />
        </mxCell>
        <mxCell id="WYHpssryrQ3IrEPbrYLd-53" value="" style="ellipse;whiteSpace=wrap;html=1;aspect=fixed;fillColor=#000000;" parent="1" vertex="1">
          <mxGeometry x="222.5" y="352.5" width="5" height="5" as="geometry" />
        </mxCell>
        <mxCell id="WYHpssryrQ3IrEPbrYLd-54" value="" style="edgeStyle=none;rounded=0;orthogonalLoop=1;jettySize=auto;html=1;exitX=1;exitY=1;exitDx=0;exitDy=0;endArrow=none;endFill=0;" parent="1" source="WYHpssryrQ3IrEPbrYLd-51" target="WYHpssryrQ3IrEPbrYLd-53" edge="1">
          <mxGeometry relative="1" as="geometry">
            <mxPoint x="240" y="370" as="targetPoint" />
            <mxPoint x="213.5355339059327" y="343.5355339059327" as="sourcePoint" />
          </mxGeometry>
        </mxCell>
        <mxCell id="WYHpssryrQ3IrEPbrYLd-55" value="" style="ellipse;whiteSpace=wrap;html=1;aspect=fixed;fillColor=#000000;" parent="1" vertex="1">
          <mxGeometry x="237.5" y="367.5" width="5" height="5" as="geometry" />
        </mxCell>
        <mxCell id="WYHpssryrQ3IrEPbrYLd-56" value="(1,n)" style="text;html=1;strokeColor=none;fillColor=none;align=center;verticalAlign=middle;whiteSpace=wrap;rounded=0;" parent="1" vertex="1">
          <mxGeometry x="195" y="408" width="30" height="10" as="geometry" />
        </mxCell>
        <mxCell id="WYHpssryrQ3IrEPbrYLd-57" value="" style="ellipse;whiteSpace=wrap;html=1;aspect=fixed;" parent="1" vertex="1">
          <mxGeometry x="405" y="600" width="10" height="10" as="geometry" />
        </mxCell>
        <mxCell id="WYHpssryrQ3IrEPbrYLd-60" value="Resultado*" style="text;html=1;strokeColor=none;fillColor=none;align=center;verticalAlign=middle;whiteSpace=wrap;rounded=0;" parent="1" vertex="1">
          <mxGeometry x="380" y="613" width="60" height="10" as="geometry" />
        </mxCell>
        <mxCell id="WYHpssryrQ3IrEPbrYLd-69" style="edgeStyle=none;rounded=0;orthogonalLoop=1;jettySize=auto;html=1;exitX=0.5;exitY=1;exitDx=0;exitDy=0;entryX=0.5;entryY=0;entryDx=0;entryDy=0;fontSize=9;endArrow=none;endFill=0;" parent="1" source="WYHpssryrQ3IrEPbrYLd-61" target="WYHpssryrQ3IrEPbrYLd-64" edge="1">
          <mxGeometry relative="1" as="geometry" />
        </mxCell>
        <mxCell id="WYHpssryrQ3IrEPbrYLd-70" style="edgeStyle=none;rounded=0;orthogonalLoop=1;jettySize=auto;html=1;exitX=0;exitY=1;exitDx=0;exitDy=0;entryX=0.5;entryY=0;entryDx=0;entryDy=0;fontSize=9;endArrow=none;endFill=0;" parent="1" source="WYHpssryrQ3IrEPbrYLd-61" target="WYHpssryrQ3IrEPbrYLd-66" edge="1">
          <mxGeometry relative="1" as="geometry" />
        </mxCell>
        <mxCell id="WYHpssryrQ3IrEPbrYLd-71" style="edgeStyle=none;rounded=0;orthogonalLoop=1;jettySize=auto;html=1;exitX=1;exitY=1;exitDx=0;exitDy=0;entryX=0.5;entryY=0;entryDx=0;entryDy=0;fontSize=9;endArrow=none;endFill=0;" parent="1" source="WYHpssryrQ3IrEPbrYLd-61" target="WYHpssryrQ3IrEPbrYLd-65" edge="1">
          <mxGeometry relative="1" as="geometry" />
        </mxCell>
        <mxCell id="WYHpssryrQ3IrEPbrYLd-75" style="edgeStyle=none;rounded=0;orthogonalLoop=1;jettySize=auto;html=1;exitX=1;exitY=0.5;exitDx=0;exitDy=0;entryX=0;entryY=0;entryDx=0;entryDy=0;fontSize=9;endArrow=none;endFill=0;" parent="1" source="WYHpssryrQ3IrEPbrYLd-61" target="WYHpssryrQ3IrEPbrYLd-67" edge="1">
          <mxGeometry relative="1" as="geometry" />
        </mxCell>
        <mxCell id="WYHpssryrQ3IrEPbrYLd-81" style="edgeStyle=none;rounded=0;orthogonalLoop=1;jettySize=auto;html=1;exitX=0;exitY=0.5;exitDx=0;exitDy=0;entryX=1;entryY=0;entryDx=0;entryDy=0;fontSize=9;endArrow=none;endFill=0;" parent="1" source="WYHpssryrQ3IrEPbrYLd-61" target="WYHpssryrQ3IrEPbrYLd-68" edge="1">
          <mxGeometry relative="1" as="geometry" />
        </mxCell>
        <mxCell id="WYHpssryrQ3IrEPbrYLd-61" value="" style="ellipse;whiteSpace=wrap;html=1;" parent="1" vertex="1">
          <mxGeometry x="145" y="592" width="50" height="26" as="geometry" />
        </mxCell>
        <mxCell id="WYHpssryrQ3IrEPbrYLd-62" value="Estadísticas" style="text;html=1;strokeColor=none;fillColor=none;align=center;verticalAlign=middle;whiteSpace=wrap;rounded=0;fontSize=9;" parent="1" vertex="1">
          <mxGeometry x="147.5" y="600" width="45" height="10" as="geometry" />
        </mxCell>
        <mxCell id="WYHpssryrQ3IrEPbrYLd-64" value="" style="ellipse;whiteSpace=wrap;html=1;aspect=fixed;fontSize=9;" parent="1" vertex="1">
          <mxGeometry x="165" y="660" width="10" height="10" as="geometry" />
        </mxCell>
        <mxCell id="WYHpssryrQ3IrEPbrYLd-65" value="" style="ellipse;whiteSpace=wrap;html=1;aspect=fixed;fontSize=9;" parent="1" vertex="1">
          <mxGeometry x="190" y="640" width="10" height="10" as="geometry" />
        </mxCell>
        <mxCell id="WYHpssryrQ3IrEPbrYLd-66" value="" style="ellipse;whiteSpace=wrap;html=1;aspect=fixed;fontSize=9;" parent="1" vertex="1">
          <mxGeometry x="140" y="640" width="10" height="10" as="geometry" />
        </mxCell>
        <mxCell id="WYHpssryrQ3IrEPbrYLd-67" value="" style="ellipse;whiteSpace=wrap;html=1;aspect=fixed;fontSize=9;" parent="1" vertex="1">
          <mxGeometry x="210" y="620" width="10" height="10" as="geometry" />
        </mxCell>
        <mxCell id="WYHpssryrQ3IrEPbrYLd-68" value="" style="ellipse;whiteSpace=wrap;html=1;aspect=fixed;fontSize=9;" parent="1" vertex="1">
          <mxGeometry x="120" y="620" width="10" height="10" as="geometry" />
        </mxCell>
        <mxCell id="WYHpssryrQ3IrEPbrYLd-76" value="Minutos" style="text;html=1;strokeColor=none;fillColor=none;align=center;verticalAlign=middle;whiteSpace=wrap;rounded=0;fontSize=9;" parent="1" vertex="1">
          <mxGeometry x="86" y="620" width="30" height="10" as="geometry" />
        </mxCell>
        <mxCell id="WYHpssryrQ3IrEPbrYLd-77" value="Puntos" style="text;html=1;strokeColor=none;fillColor=none;align=center;verticalAlign=middle;whiteSpace=wrap;rounded=0;fontSize=9;" parent="1" vertex="1">
          <mxGeometry x="107" y="640" width="30" height="10" as="geometry" />
        </mxCell>
        <mxCell id="WYHpssryrQ3IrEPbrYLd-78" value="Rebotes" style="text;html=1;strokeColor=none;fillColor=none;align=center;verticalAlign=middle;whiteSpace=wrap;rounded=0;fontSize=9;" parent="1" vertex="1">
          <mxGeometry x="152.5" y="672" width="35" height="10" as="geometry" />
        </mxCell>
        <mxCell id="WYHpssryrQ3IrEPbrYLd-79" value="Asistencias" style="text;html=1;strokeColor=none;fillColor=none;align=center;verticalAlign=middle;whiteSpace=wrap;rounded=0;fontSize=9;" parent="1" vertex="1">
          <mxGeometry x="200" y="641" width="53" height="8" as="geometry" />
        </mxCell>
        <mxCell id="WYHpssryrQ3IrEPbrYLd-80" value="Faltas" style="text;html=1;strokeColor=none;fillColor=none;align=center;verticalAlign=middle;whiteSpace=wrap;rounded=0;fontSize=9;" parent="1" vertex="1">
          <mxGeometry x="221" y="620" width="30" height="10" as="geometry" />
        </mxCell>
        <mxCell id="WYHpssryrQ3IrEPbrYLd-82" value="PLANTILLA" style="text;html=1;strokeColor=none;fillColor=none;align=center;verticalAlign=middle;whiteSpace=wrap;rounded=0;fontSize=9;" parent="1" vertex="1">
          <mxGeometry x="140" y="175" width="60" height="10" as="geometry" />
        </mxCell>
        <mxCell id="zdLdxXRoiNXXk5OTOb_9-3" value="&lt;b&gt;&lt;font color=&quot;#ff0000&quot;&gt;N:1&lt;/font&gt;&lt;/b&gt;" style="text;html=1;strokeColor=none;fillColor=none;align=center;verticalAlign=middle;whiteSpace=wrap;rounded=0;" parent="1" vertex="1">
          <mxGeometry x="636.75" y="175" width="26.5" height="10" as="geometry" />
        </mxCell>
        <mxCell id="zdLdxXRoiNXXk5OTOb_9-5" value="&lt;b&gt;&lt;font color=&quot;#ff0000&quot;&gt;N:1&lt;/font&gt;&lt;/b&gt;" style="text;html=1;strokeColor=none;fillColor=none;align=center;verticalAlign=middle;whiteSpace=wrap;rounded=0;" parent="1" vertex="1">
          <mxGeometry x="200" y="240" width="26.5" height="10" as="geometry" />
        </mxCell>
        <mxCell id="zdLdxXRoiNXXk5OTOb_9-6" value="&lt;b&gt;&lt;font color=&quot;#ff0000&quot;&gt;N:M&lt;/font&gt;&lt;/b&gt;" style="text;html=1;strokeColor=none;fillColor=none;align=center;verticalAlign=middle;whiteSpace=wrap;rounded=0;" parent="1" vertex="1">
          <mxGeometry x="195" y="510" width="26.5" height="10" as="geometry" />
        </mxCell>
        <mxCell id="KExs1tTAxRdCBw5BiNWN-1" value="* Resultado es un atributo derivado" style="text;html=1;strokeColor=none;fillColor=none;align=center;verticalAlign=middle;whiteSpace=wrap;rounded=0;" parent="1" vertex="1">
          <mxGeometry x="437" y="570" width="111" height="30" as="geometry" />
        </mxCell>
        <mxCell id="KExs1tTAxRdCBw5BiNWN-2" value="** La relación entre equipo y partido sería redundante ya que la podemos deducir a través de los jugadores que juegan cada partido." style="text;html=1;strokeColor=none;fillColor=none;align=left;verticalAlign=middle;whiteSpace=wrap;rounded=0;" parent="1" vertex="1">
          <mxGeometry x="350" y="365" width="195" height="63" as="geometry" />
        </mxCell>
        <mxCell id="Fvk5Qw4wSfaVSMRYr25U-3" style="edgeStyle=orthogonalEdgeStyle;rounded=0;orthogonalLoop=1;jettySize=auto;html=1;exitX=1;exitY=0.5;exitDx=0;exitDy=0;entryX=1;entryY=0.5;entryDx=0;entryDy=0;endArrow=none;endFill=0;" edge="1" parent="1" source="Fvk5Qw4wSfaVSMRYr25U-1" target="WYHpssryrQ3IrEPbrYLd-3">
          <mxGeometry relative="1" as="geometry" />
        </mxCell>
        <mxCell id="Fvk5Qw4wSfaVSMRYr25U-1" value="DISPUTAR" style="shape=rhombus;perimeter=rhombusPerimeter;whiteSpace=wrap;html=1;align=center;" vertex="1" parent="1">
          <mxGeometry x="590" y="510" width="120" height="60" as="geometry" />
        </mxCell>
        <mxCell id="Fvk5Qw4wSfaVSMRYr25U-4" value="(1,1)" style="text;html=1;strokeColor=none;fillColor=none;align=center;verticalAlign=middle;whiteSpace=wrap;rounded=0;" vertex="1" parent="1">
          <mxGeometry x="489" y="523" width="30" height="10" as="geometry" />
        </mxCell>
        <mxCell id="Fvk5Qw4wSfaVSMRYr25U-9" value="(0,n)" style="text;html=1;strokeColor=none;fillColor=none;align=center;verticalAlign=middle;whiteSpace=wrap;rounded=0;" vertex="1" parent="1">
          <mxGeometry x="704" y="364" width="30" height="13" as="geometry" />
        </mxCell>
        <mxCell id="FNqxOqNy-n7OaQk9vS11-1" value="&lt;b&gt;&lt;font color=&quot;#ff0000&quot;&gt;N:1&lt;/font&gt;&lt;/b&gt;" style="text;html=1;strokeColor=none;fillColor=none;align=center;verticalAlign=middle;whiteSpace=wrap;rounded=0;" vertex="1" parent="1">
          <mxGeometry x="636.75" y="575" width="26.5" height="10" as="geometry" />
        </mxCell>
      </root>
    </mxGraphModel>
  </diagram>
  <diagram id="X4smsZOSUXM0_JnSRFOQ" name="DIAGRAMA LÓGICO">
    <mxGraphModel dx="934" dy="664" grid="1" gridSize="10" guides="1" tooltips="1" connect="1" arrows="1" fold="1" page="1" pageScale="1" pageWidth="827" pageHeight="1169" math="0" shadow="0">
      <root>
        <mxCell id="3vT56OYeJFOmMg1Qn36p-0" />
        <mxCell id="3vT56OYeJFOmMg1Qn36p-1" parent="3vT56OYeJFOmMg1Qn36p-0" />
        <mxCell id="LlK-PFAm49mic7ZKYAwm-0" value="EQUIPOS" style="shape=table;startSize=30;container=1;collapsible=1;childLayout=tableLayout;fixedRows=1;rowLines=0;fontStyle=1;align=center;resizeLast=1;" parent="3vT56OYeJFOmMg1Qn36p-1" vertex="1">
          <mxGeometry x="80" y="160" width="180" height="100" as="geometry" />
        </mxCell>
        <mxCell id="LlK-PFAm49mic7ZKYAwm-1" value="" style="shape=tableRow;horizontal=0;startSize=0;swimlaneHead=0;swimlaneBody=0;fillColor=none;collapsible=0;dropTarget=0;points=[[0,0.5],[1,0.5]];portConstraint=eastwest;top=0;left=0;right=0;bottom=0;" parent="LlK-PFAm49mic7ZKYAwm-0" vertex="1">
          <mxGeometry y="30" width="180" height="30" as="geometry" />
        </mxCell>
        <mxCell id="LlK-PFAm49mic7ZKYAwm-2" value="PK" style="shape=partialRectangle;connectable=0;fillColor=none;top=0;left=0;bottom=0;right=0;fontStyle=1;overflow=hidden;" parent="LlK-PFAm49mic7ZKYAwm-1" vertex="1">
          <mxGeometry width="30" height="30" as="geometry">
            <mxRectangle width="30" height="30" as="alternateBounds" />
          </mxGeometry>
        </mxCell>
        <mxCell id="LlK-PFAm49mic7ZKYAwm-3" value="NOMBRE_EQUIPO" style="shape=partialRectangle;connectable=0;fillColor=none;top=0;left=0;bottom=0;right=0;align=left;spacingLeft=6;fontStyle=5;overflow=hidden;" parent="LlK-PFAm49mic7ZKYAwm-1" vertex="1">
          <mxGeometry x="30" width="150" height="30" as="geometry">
            <mxRectangle width="150" height="30" as="alternateBounds" />
          </mxGeometry>
        </mxCell>
        <mxCell id="LlK-PFAm49mic7ZKYAwm-4" value="" style="shape=tableRow;horizontal=0;startSize=0;swimlaneHead=0;swimlaneBody=0;fillColor=none;collapsible=0;dropTarget=0;points=[[0,0.5],[1,0.5]];portConstraint=eastwest;top=0;left=0;right=0;bottom=1;" parent="LlK-PFAm49mic7ZKYAwm-0" vertex="1">
          <mxGeometry y="60" width="180" height="30" as="geometry" />
        </mxCell>
        <mxCell id="LlK-PFAm49mic7ZKYAwm-5" value="FK" style="shape=partialRectangle;connectable=0;fillColor=none;top=0;left=0;bottom=0;right=0;fontStyle=1;overflow=hidden;" parent="LlK-PFAm49mic7ZKYAwm-4" vertex="1">
          <mxGeometry width="30" height="30" as="geometry">
            <mxRectangle width="30" height="30" as="alternateBounds" />
          </mxGeometry>
        </mxCell>
        <mxCell id="LlK-PFAm49mic7ZKYAwm-6" value="ID_PABELLON" style="shape=partialRectangle;connectable=0;fillColor=none;top=0;left=0;bottom=0;right=0;align=left;spacingLeft=6;fontStyle=5;overflow=hidden;" parent="LlK-PFAm49mic7ZKYAwm-4" vertex="1">
          <mxGeometry x="30" width="150" height="30" as="geometry">
            <mxRectangle width="150" height="30" as="alternateBounds" />
          </mxGeometry>
        </mxCell>
        <mxCell id="LlK-PFAm49mic7ZKYAwm-13" value="PABELLONES" style="shape=table;startSize=30;container=1;collapsible=1;childLayout=tableLayout;fixedRows=1;rowLines=0;fontStyle=1;align=center;resizeLast=1;" parent="3vT56OYeJFOmMg1Qn36p-1" vertex="1">
          <mxGeometry x="580" y="160" width="180" height="160" as="geometry" />
        </mxCell>
        <mxCell id="LlK-PFAm49mic7ZKYAwm-14" value="" style="shape=tableRow;horizontal=0;startSize=0;swimlaneHead=0;swimlaneBody=0;fillColor=none;collapsible=0;dropTarget=0;points=[[0,0.5],[1,0.5]];portConstraint=eastwest;top=0;left=0;right=0;bottom=1;" parent="LlK-PFAm49mic7ZKYAwm-13" vertex="1">
          <mxGeometry y="30" width="180" height="30" as="geometry" />
        </mxCell>
        <mxCell id="LlK-PFAm49mic7ZKYAwm-15" value="PK" style="shape=partialRectangle;connectable=0;fillColor=none;top=0;left=0;bottom=0;right=0;fontStyle=1;overflow=hidden;" parent="LlK-PFAm49mic7ZKYAwm-14" vertex="1">
          <mxGeometry width="30" height="30" as="geometry">
            <mxRectangle width="30" height="30" as="alternateBounds" />
          </mxGeometry>
        </mxCell>
        <mxCell id="LlK-PFAm49mic7ZKYAwm-16" value="ID_PABELLON" style="shape=partialRectangle;connectable=0;fillColor=none;top=0;left=0;bottom=0;right=0;align=left;spacingLeft=6;fontStyle=5;overflow=hidden;" parent="LlK-PFAm49mic7ZKYAwm-14" vertex="1">
          <mxGeometry x="30" width="150" height="30" as="geometry">
            <mxRectangle width="150" height="30" as="alternateBounds" />
          </mxGeometry>
        </mxCell>
        <mxCell id="LlK-PFAm49mic7ZKYAwm-17" value="" style="shape=tableRow;horizontal=0;startSize=0;swimlaneHead=0;swimlaneBody=0;fillColor=none;collapsible=0;dropTarget=0;points=[[0,0.5],[1,0.5]];portConstraint=eastwest;top=0;left=0;right=0;bottom=0;" parent="LlK-PFAm49mic7ZKYAwm-13" vertex="1">
          <mxGeometry y="60" width="180" height="30" as="geometry" />
        </mxCell>
        <mxCell id="LlK-PFAm49mic7ZKYAwm-18" value="" style="shape=partialRectangle;connectable=0;fillColor=none;top=0;left=0;bottom=0;right=0;editable=1;overflow=hidden;" parent="LlK-PFAm49mic7ZKYAwm-17" vertex="1">
          <mxGeometry width="30" height="30" as="geometry">
            <mxRectangle width="30" height="30" as="alternateBounds" />
          </mxGeometry>
        </mxCell>
        <mxCell id="LlK-PFAm49mic7ZKYAwm-19" value="NOMBRE" style="shape=partialRectangle;connectable=0;fillColor=none;top=0;left=0;bottom=0;right=0;align=left;spacingLeft=6;overflow=hidden;" parent="LlK-PFAm49mic7ZKYAwm-17" vertex="1">
          <mxGeometry x="30" width="150" height="30" as="geometry">
            <mxRectangle width="150" height="30" as="alternateBounds" />
          </mxGeometry>
        </mxCell>
        <mxCell id="LlK-PFAm49mic7ZKYAwm-20" value="" style="shape=tableRow;horizontal=0;startSize=0;swimlaneHead=0;swimlaneBody=0;fillColor=none;collapsible=0;dropTarget=0;points=[[0,0.5],[1,0.5]];portConstraint=eastwest;top=0;left=0;right=0;bottom=0;" parent="LlK-PFAm49mic7ZKYAwm-13" vertex="1">
          <mxGeometry y="90" width="180" height="30" as="geometry" />
        </mxCell>
        <mxCell id="LlK-PFAm49mic7ZKYAwm-21" value="" style="shape=partialRectangle;connectable=0;fillColor=none;top=0;left=0;bottom=0;right=0;editable=1;overflow=hidden;" parent="LlK-PFAm49mic7ZKYAwm-20" vertex="1">
          <mxGeometry width="30" height="30" as="geometry">
            <mxRectangle width="30" height="30" as="alternateBounds" />
          </mxGeometry>
        </mxCell>
        <mxCell id="LlK-PFAm49mic7ZKYAwm-22" value="CIUDAD *" style="shape=partialRectangle;connectable=0;fillColor=none;top=0;left=0;bottom=0;right=0;align=left;spacingLeft=6;overflow=hidden;" parent="LlK-PFAm49mic7ZKYAwm-20" vertex="1">
          <mxGeometry x="30" width="150" height="30" as="geometry">
            <mxRectangle width="150" height="30" as="alternateBounds" />
          </mxGeometry>
        </mxCell>
        <mxCell id="LlK-PFAm49mic7ZKYAwm-23" value="" style="shape=tableRow;horizontal=0;startSize=0;swimlaneHead=0;swimlaneBody=0;fillColor=none;collapsible=0;dropTarget=0;points=[[0,0.5],[1,0.5]];portConstraint=eastwest;top=0;left=0;right=0;bottom=0;" parent="LlK-PFAm49mic7ZKYAwm-13" vertex="1">
          <mxGeometry y="120" width="180" height="30" as="geometry" />
        </mxCell>
        <mxCell id="LlK-PFAm49mic7ZKYAwm-24" value="" style="shape=partialRectangle;connectable=0;fillColor=none;top=0;left=0;bottom=0;right=0;editable=1;overflow=hidden;" parent="LlK-PFAm49mic7ZKYAwm-23" vertex="1">
          <mxGeometry width="30" height="30" as="geometry">
            <mxRectangle width="30" height="30" as="alternateBounds" />
          </mxGeometry>
        </mxCell>
        <mxCell id="LlK-PFAm49mic7ZKYAwm-25" value="CAPACIDAD" style="shape=partialRectangle;connectable=0;fillColor=none;top=0;left=0;bottom=0;right=0;align=left;spacingLeft=6;overflow=hidden;" parent="LlK-PFAm49mic7ZKYAwm-23" vertex="1">
          <mxGeometry x="30" width="150" height="30" as="geometry">
            <mxRectangle width="150" height="30" as="alternateBounds" />
          </mxGeometry>
        </mxCell>
        <mxCell id="fJ4GHWnHUFuhu5mpYdJX-0" value="JUGADORES" style="shape=table;startSize=30;container=1;collapsible=1;childLayout=tableLayout;fixedRows=1;rowLines=0;fontStyle=1;align=center;resizeLast=1;" parent="3vT56OYeJFOmMg1Qn36p-1" vertex="1">
          <mxGeometry x="80" y="387" width="180" height="190" as="geometry" />
        </mxCell>
        <mxCell id="fJ4GHWnHUFuhu5mpYdJX-1" value="" style="shape=tableRow;horizontal=0;startSize=0;swimlaneHead=0;swimlaneBody=0;fillColor=none;collapsible=0;dropTarget=0;points=[[0,0.5],[1,0.5]];portConstraint=eastwest;top=0;left=0;right=0;bottom=0;" parent="fJ4GHWnHUFuhu5mpYdJX-0" vertex="1">
          <mxGeometry y="30" width="180" height="30" as="geometry" />
        </mxCell>
        <mxCell id="fJ4GHWnHUFuhu5mpYdJX-2" value="PK" style="shape=partialRectangle;connectable=0;fillColor=none;top=0;left=0;bottom=0;right=0;fontStyle=1;overflow=hidden;" parent="fJ4GHWnHUFuhu5mpYdJX-1" vertex="1">
          <mxGeometry width="30" height="30" as="geometry">
            <mxRectangle width="30" height="30" as="alternateBounds" />
          </mxGeometry>
        </mxCell>
        <mxCell id="fJ4GHWnHUFuhu5mpYdJX-3" value="ID_JUGADOR" style="shape=partialRectangle;connectable=0;fillColor=none;top=0;left=0;bottom=0;right=0;align=left;spacingLeft=6;fontStyle=5;overflow=hidden;" parent="fJ4GHWnHUFuhu5mpYdJX-1" vertex="1">
          <mxGeometry x="30" width="150" height="30" as="geometry">
            <mxRectangle width="150" height="30" as="alternateBounds" />
          </mxGeometry>
        </mxCell>
        <mxCell id="fJ4GHWnHUFuhu5mpYdJX-4" value="" style="shape=tableRow;horizontal=0;startSize=0;swimlaneHead=0;swimlaneBody=0;fillColor=none;collapsible=0;dropTarget=0;points=[[0,0.5],[1,0.5]];portConstraint=eastwest;top=0;left=0;right=0;bottom=1;" parent="fJ4GHWnHUFuhu5mpYdJX-0" vertex="1">
          <mxGeometry y="60" width="180" height="30" as="geometry" />
        </mxCell>
        <mxCell id="fJ4GHWnHUFuhu5mpYdJX-5" value="FK" style="shape=partialRectangle;connectable=0;fillColor=none;top=0;left=0;bottom=0;right=0;fontStyle=1;overflow=hidden;" parent="fJ4GHWnHUFuhu5mpYdJX-4" vertex="1">
          <mxGeometry width="30" height="30" as="geometry">
            <mxRectangle width="30" height="30" as="alternateBounds" />
          </mxGeometry>
        </mxCell>
        <mxCell id="fJ4GHWnHUFuhu5mpYdJX-6" value="NOMBRE_EQUIPO" style="shape=partialRectangle;connectable=0;fillColor=none;top=0;left=0;bottom=0;right=0;align=left;spacingLeft=6;fontStyle=5;overflow=hidden;" parent="fJ4GHWnHUFuhu5mpYdJX-4" vertex="1">
          <mxGeometry x="30" width="150" height="30" as="geometry">
            <mxRectangle width="150" height="30" as="alternateBounds" />
          </mxGeometry>
        </mxCell>
        <mxCell id="fJ4GHWnHUFuhu5mpYdJX-7" value="" style="shape=tableRow;horizontal=0;startSize=0;swimlaneHead=0;swimlaneBody=0;fillColor=none;collapsible=0;dropTarget=0;points=[[0,0.5],[1,0.5]];portConstraint=eastwest;top=0;left=0;right=0;bottom=0;" parent="fJ4GHWnHUFuhu5mpYdJX-0" vertex="1">
          <mxGeometry y="90" width="180" height="30" as="geometry" />
        </mxCell>
        <mxCell id="fJ4GHWnHUFuhu5mpYdJX-8" value="" style="shape=partialRectangle;connectable=0;fillColor=none;top=0;left=0;bottom=0;right=0;editable=1;overflow=hidden;" parent="fJ4GHWnHUFuhu5mpYdJX-7" vertex="1">
          <mxGeometry width="30" height="30" as="geometry">
            <mxRectangle width="30" height="30" as="alternateBounds" />
          </mxGeometry>
        </mxCell>
        <mxCell id="fJ4GHWnHUFuhu5mpYdJX-9" value="NOMBRE" style="shape=partialRectangle;connectable=0;fillColor=none;top=0;left=0;bottom=0;right=0;align=left;spacingLeft=6;overflow=hidden;" parent="fJ4GHWnHUFuhu5mpYdJX-7" vertex="1">
          <mxGeometry x="30" width="150" height="30" as="geometry">
            <mxRectangle width="150" height="30" as="alternateBounds" />
          </mxGeometry>
        </mxCell>
        <mxCell id="eQ_en8ISOP4LAMD3zX8o-0" value="" style="shape=tableRow;horizontal=0;startSize=0;swimlaneHead=0;swimlaneBody=0;fillColor=none;collapsible=0;dropTarget=0;points=[[0,0.5],[1,0.5]];portConstraint=eastwest;top=0;left=0;right=0;bottom=0;" parent="fJ4GHWnHUFuhu5mpYdJX-0" vertex="1">
          <mxGeometry y="120" width="180" height="30" as="geometry" />
        </mxCell>
        <mxCell id="eQ_en8ISOP4LAMD3zX8o-1" value="" style="shape=partialRectangle;connectable=0;fillColor=none;top=0;left=0;bottom=0;right=0;editable=1;overflow=hidden;" parent="eQ_en8ISOP4LAMD3zX8o-0" vertex="1">
          <mxGeometry width="30" height="30" as="geometry">
            <mxRectangle width="30" height="30" as="alternateBounds" />
          </mxGeometry>
        </mxCell>
        <mxCell id="eQ_en8ISOP4LAMD3zX8o-2" value="DORSAL" style="shape=partialRectangle;connectable=0;fillColor=none;top=0;left=0;bottom=0;right=0;align=left;spacingLeft=6;overflow=hidden;" parent="eQ_en8ISOP4LAMD3zX8o-0" vertex="1">
          <mxGeometry x="30" width="150" height="30" as="geometry">
            <mxRectangle width="150" height="30" as="alternateBounds" />
          </mxGeometry>
        </mxCell>
        <mxCell id="fJ4GHWnHUFuhu5mpYdJX-10" value="" style="shape=tableRow;horizontal=0;startSize=0;swimlaneHead=0;swimlaneBody=0;fillColor=none;collapsible=0;dropTarget=0;points=[[0,0.5],[1,0.5]];portConstraint=eastwest;top=0;left=0;right=0;bottom=0;" parent="fJ4GHWnHUFuhu5mpYdJX-0" vertex="1">
          <mxGeometry y="150" width="180" height="30" as="geometry" />
        </mxCell>
        <mxCell id="fJ4GHWnHUFuhu5mpYdJX-11" value="" style="shape=partialRectangle;connectable=0;fillColor=none;top=0;left=0;bottom=0;right=0;editable=1;overflow=hidden;" parent="fJ4GHWnHUFuhu5mpYdJX-10" vertex="1">
          <mxGeometry width="30" height="30" as="geometry">
            <mxRectangle width="30" height="30" as="alternateBounds" />
          </mxGeometry>
        </mxCell>
        <mxCell id="fJ4GHWnHUFuhu5mpYdJX-12" value="ESTATURA" style="shape=partialRectangle;connectable=0;fillColor=none;top=0;left=0;bottom=0;right=0;align=left;spacingLeft=6;overflow=hidden;" parent="fJ4GHWnHUFuhu5mpYdJX-10" vertex="1">
          <mxGeometry x="30" width="150" height="30" as="geometry">
            <mxRectangle width="150" height="30" as="alternateBounds" />
          </mxGeometry>
        </mxCell>
        <mxCell id="fJ4GHWnHUFuhu5mpYdJX-13" value="PARTIDOS" style="shape=table;startSize=30;container=1;collapsible=1;childLayout=tableLayout;fixedRows=1;rowLines=0;fontStyle=1;align=center;resizeLast=1;" parent="3vT56OYeJFOmMg1Qn36p-1" vertex="1">
          <mxGeometry x="580" y="387" width="180" height="130" as="geometry" />
        </mxCell>
        <mxCell id="fJ4GHWnHUFuhu5mpYdJX-14" value="" style="shape=tableRow;horizontal=0;startSize=0;swimlaneHead=0;swimlaneBody=0;fillColor=none;collapsible=0;dropTarget=0;points=[[0,0.5],[1,0.5]];portConstraint=eastwest;top=0;left=0;right=0;bottom=1;" parent="fJ4GHWnHUFuhu5mpYdJX-13" vertex="1">
          <mxGeometry y="30" width="180" height="30" as="geometry" />
        </mxCell>
        <mxCell id="fJ4GHWnHUFuhu5mpYdJX-15" value="PK" style="shape=partialRectangle;connectable=0;fillColor=none;top=0;left=0;bottom=0;right=0;fontStyle=1;overflow=hidden;" parent="fJ4GHWnHUFuhu5mpYdJX-14" vertex="1">
          <mxGeometry width="30" height="30" as="geometry">
            <mxRectangle width="30" height="30" as="alternateBounds" />
          </mxGeometry>
        </mxCell>
        <mxCell id="fJ4GHWnHUFuhu5mpYdJX-16" value="ID_PARTIDO" style="shape=partialRectangle;connectable=0;fillColor=none;top=0;left=0;bottom=0;right=0;align=left;spacingLeft=6;fontStyle=5;overflow=hidden;" parent="fJ4GHWnHUFuhu5mpYdJX-14" vertex="1">
          <mxGeometry x="30" width="150" height="30" as="geometry">
            <mxRectangle width="150" height="30" as="alternateBounds" />
          </mxGeometry>
        </mxCell>
        <mxCell id="ddJ87rHQoPetIa_ssNhM-0" value="" style="shape=tableRow;horizontal=0;startSize=0;swimlaneHead=0;swimlaneBody=0;fillColor=none;collapsible=0;dropTarget=0;points=[[0,0.5],[1,0.5]];portConstraint=eastwest;top=0;left=0;right=0;bottom=1;" vertex="1" parent="fJ4GHWnHUFuhu5mpYdJX-13">
          <mxGeometry y="60" width="180" height="30" as="geometry" />
        </mxCell>
        <mxCell id="ddJ87rHQoPetIa_ssNhM-1" value="FK" style="shape=partialRectangle;connectable=0;fillColor=none;top=0;left=0;bottom=0;right=0;fontStyle=0;overflow=hidden;whiteSpace=wrap;html=1;" vertex="1" parent="ddJ87rHQoPetIa_ssNhM-0">
          <mxGeometry width="30" height="30" as="geometry">
            <mxRectangle width="30" height="30" as="alternateBounds" />
          </mxGeometry>
        </mxCell>
        <mxCell id="ddJ87rHQoPetIa_ssNhM-2" value="ID_PABELLON" style="shape=partialRectangle;connectable=0;fillColor=none;top=0;left=0;bottom=0;right=0;align=left;spacingLeft=6;fontStyle=0;overflow=hidden;whiteSpace=wrap;html=1;" vertex="1" parent="ddJ87rHQoPetIa_ssNhM-0">
          <mxGeometry x="30" width="150" height="30" as="geometry">
            <mxRectangle width="150" height="30" as="alternateBounds" />
          </mxGeometry>
        </mxCell>
        <mxCell id="fJ4GHWnHUFuhu5mpYdJX-17" value="" style="shape=tableRow;horizontal=0;startSize=0;swimlaneHead=0;swimlaneBody=0;fillColor=none;collapsible=0;dropTarget=0;points=[[0,0.5],[1,0.5]];portConstraint=eastwest;top=0;left=0;right=0;bottom=0;" parent="fJ4GHWnHUFuhu5mpYdJX-13" vertex="1">
          <mxGeometry y="90" width="180" height="30" as="geometry" />
        </mxCell>
        <mxCell id="fJ4GHWnHUFuhu5mpYdJX-18" value="" style="shape=partialRectangle;connectable=0;fillColor=none;top=0;left=0;bottom=0;right=0;editable=1;overflow=hidden;" parent="fJ4GHWnHUFuhu5mpYdJX-17" vertex="1">
          <mxGeometry width="30" height="30" as="geometry">
            <mxRectangle width="30" height="30" as="alternateBounds" />
          </mxGeometry>
        </mxCell>
        <mxCell id="fJ4GHWnHUFuhu5mpYdJX-19" value="RESULTADO" style="shape=partialRectangle;connectable=0;fillColor=none;top=0;left=0;bottom=0;right=0;align=left;spacingLeft=6;overflow=hidden;" parent="fJ4GHWnHUFuhu5mpYdJX-17" vertex="1">
          <mxGeometry x="30" width="150" height="30" as="geometry">
            <mxRectangle width="150" height="30" as="alternateBounds" />
          </mxGeometry>
        </mxCell>
        <mxCell id="fJ4GHWnHUFuhu5mpYdJX-26" value="ESTADISTICAS" style="shape=table;startSize=30;container=1;collapsible=1;childLayout=tableLayout;fixedRows=1;rowLines=0;fontStyle=1;align=center;resizeLast=1;" parent="3vT56OYeJFOmMg1Qn36p-1" vertex="1">
          <mxGeometry x="330" y="387" width="180" height="250" as="geometry" />
        </mxCell>
        <mxCell id="fJ4GHWnHUFuhu5mpYdJX-27" value="" style="shape=tableRow;horizontal=0;startSize=0;swimlaneHead=0;swimlaneBody=0;fillColor=none;collapsible=0;dropTarget=0;points=[[0,0.5],[1,0.5]];portConstraint=eastwest;top=0;left=0;right=0;bottom=0;" parent="fJ4GHWnHUFuhu5mpYdJX-26" vertex="1">
          <mxGeometry y="30" width="180" height="30" as="geometry" />
        </mxCell>
        <mxCell id="fJ4GHWnHUFuhu5mpYdJX-28" value="FK" style="shape=partialRectangle;connectable=0;fillColor=none;top=0;left=0;bottom=0;right=0;fontStyle=1;overflow=hidden;" parent="fJ4GHWnHUFuhu5mpYdJX-27" vertex="1">
          <mxGeometry width="30" height="30" as="geometry">
            <mxRectangle width="30" height="30" as="alternateBounds" />
          </mxGeometry>
        </mxCell>
        <mxCell id="fJ4GHWnHUFuhu5mpYdJX-29" value="ID_JUGADOR" style="shape=partialRectangle;connectable=0;fillColor=none;top=0;left=0;bottom=0;right=0;align=left;spacingLeft=6;fontStyle=5;overflow=hidden;" parent="fJ4GHWnHUFuhu5mpYdJX-27" vertex="1">
          <mxGeometry x="30" width="150" height="30" as="geometry">
            <mxRectangle width="150" height="30" as="alternateBounds" />
          </mxGeometry>
        </mxCell>
        <mxCell id="fJ4GHWnHUFuhu5mpYdJX-30" value="" style="shape=tableRow;horizontal=0;startSize=0;swimlaneHead=0;swimlaneBody=0;fillColor=none;collapsible=0;dropTarget=0;points=[[0,0.5],[1,0.5]];portConstraint=eastwest;top=0;left=0;right=0;bottom=1;" parent="fJ4GHWnHUFuhu5mpYdJX-26" vertex="1">
          <mxGeometry y="60" width="180" height="30" as="geometry" />
        </mxCell>
        <mxCell id="fJ4GHWnHUFuhu5mpYdJX-31" value="FK" style="shape=partialRectangle;connectable=0;fillColor=none;top=0;left=0;bottom=0;right=0;fontStyle=1;overflow=hidden;" parent="fJ4GHWnHUFuhu5mpYdJX-30" vertex="1">
          <mxGeometry width="30" height="30" as="geometry">
            <mxRectangle width="30" height="30" as="alternateBounds" />
          </mxGeometry>
        </mxCell>
        <mxCell id="fJ4GHWnHUFuhu5mpYdJX-32" value="ID_PARTIDO" style="shape=partialRectangle;connectable=0;fillColor=none;top=0;left=0;bottom=0;right=0;align=left;spacingLeft=6;fontStyle=5;overflow=hidden;" parent="fJ4GHWnHUFuhu5mpYdJX-30" vertex="1">
          <mxGeometry x="30" width="150" height="30" as="geometry">
            <mxRectangle width="150" height="30" as="alternateBounds" />
          </mxGeometry>
        </mxCell>
        <mxCell id="fJ4GHWnHUFuhu5mpYdJX-33" value="" style="shape=tableRow;horizontal=0;startSize=0;swimlaneHead=0;swimlaneBody=0;fillColor=none;collapsible=0;dropTarget=0;points=[[0,0.5],[1,0.5]];portConstraint=eastwest;top=0;left=0;right=0;bottom=0;" parent="fJ4GHWnHUFuhu5mpYdJX-26" vertex="1">
          <mxGeometry y="90" width="180" height="30" as="geometry" />
        </mxCell>
        <mxCell id="fJ4GHWnHUFuhu5mpYdJX-34" value="" style="shape=partialRectangle;connectable=0;fillColor=none;top=0;left=0;bottom=0;right=0;editable=1;overflow=hidden;" parent="fJ4GHWnHUFuhu5mpYdJX-33" vertex="1">
          <mxGeometry width="30" height="30" as="geometry">
            <mxRectangle width="30" height="30" as="alternateBounds" />
          </mxGeometry>
        </mxCell>
        <mxCell id="fJ4GHWnHUFuhu5mpYdJX-35" value="MINUTOS" style="shape=partialRectangle;connectable=0;fillColor=none;top=0;left=0;bottom=0;right=0;align=left;spacingLeft=6;overflow=hidden;" parent="fJ4GHWnHUFuhu5mpYdJX-33" vertex="1">
          <mxGeometry x="30" width="150" height="30" as="geometry">
            <mxRectangle width="150" height="30" as="alternateBounds" />
          </mxGeometry>
        </mxCell>
        <mxCell id="l-Y4wYKXh6nAWUkN1JSR-0" value="" style="shape=tableRow;horizontal=0;startSize=0;swimlaneHead=0;swimlaneBody=0;fillColor=none;collapsible=0;dropTarget=0;points=[[0,0.5],[1,0.5]];portConstraint=eastwest;top=0;left=0;right=0;bottom=0;" parent="fJ4GHWnHUFuhu5mpYdJX-26" vertex="1">
          <mxGeometry y="120" width="180" height="30" as="geometry" />
        </mxCell>
        <mxCell id="l-Y4wYKXh6nAWUkN1JSR-1" value="" style="shape=partialRectangle;connectable=0;fillColor=none;top=0;left=0;bottom=0;right=0;editable=1;overflow=hidden;" parent="l-Y4wYKXh6nAWUkN1JSR-0" vertex="1">
          <mxGeometry width="30" height="30" as="geometry">
            <mxRectangle width="30" height="30" as="alternateBounds" />
          </mxGeometry>
        </mxCell>
        <mxCell id="l-Y4wYKXh6nAWUkN1JSR-2" value="PUNTOS" style="shape=partialRectangle;connectable=0;fillColor=none;top=0;left=0;bottom=0;right=0;align=left;spacingLeft=6;overflow=hidden;" parent="l-Y4wYKXh6nAWUkN1JSR-0" vertex="1">
          <mxGeometry x="30" width="150" height="30" as="geometry">
            <mxRectangle width="150" height="30" as="alternateBounds" />
          </mxGeometry>
        </mxCell>
        <mxCell id="fJ4GHWnHUFuhu5mpYdJX-36" value="" style="shape=tableRow;horizontal=0;startSize=0;swimlaneHead=0;swimlaneBody=0;fillColor=none;collapsible=0;dropTarget=0;points=[[0,0.5],[1,0.5]];portConstraint=eastwest;top=0;left=0;right=0;bottom=0;" parent="fJ4GHWnHUFuhu5mpYdJX-26" vertex="1">
          <mxGeometry y="150" width="180" height="30" as="geometry" />
        </mxCell>
        <mxCell id="fJ4GHWnHUFuhu5mpYdJX-37" value="" style="shape=partialRectangle;connectable=0;fillColor=none;top=0;left=0;bottom=0;right=0;editable=1;overflow=hidden;" parent="fJ4GHWnHUFuhu5mpYdJX-36" vertex="1">
          <mxGeometry width="30" height="30" as="geometry">
            <mxRectangle width="30" height="30" as="alternateBounds" />
          </mxGeometry>
        </mxCell>
        <mxCell id="fJ4GHWnHUFuhu5mpYdJX-38" value="REBOTES" style="shape=partialRectangle;connectable=0;fillColor=none;top=0;left=0;bottom=0;right=0;align=left;spacingLeft=6;overflow=hidden;" parent="fJ4GHWnHUFuhu5mpYdJX-36" vertex="1">
          <mxGeometry x="30" width="150" height="30" as="geometry">
            <mxRectangle width="150" height="30" as="alternateBounds" />
          </mxGeometry>
        </mxCell>
        <mxCell id="l-Y4wYKXh6nAWUkN1JSR-3" value="" style="shape=tableRow;horizontal=0;startSize=0;swimlaneHead=0;swimlaneBody=0;fillColor=none;collapsible=0;dropTarget=0;points=[[0,0.5],[1,0.5]];portConstraint=eastwest;top=0;left=0;right=0;bottom=0;" parent="fJ4GHWnHUFuhu5mpYdJX-26" vertex="1">
          <mxGeometry y="180" width="180" height="30" as="geometry" />
        </mxCell>
        <mxCell id="l-Y4wYKXh6nAWUkN1JSR-4" value="" style="shape=partialRectangle;connectable=0;fillColor=none;top=0;left=0;bottom=0;right=0;editable=1;overflow=hidden;" parent="l-Y4wYKXh6nAWUkN1JSR-3" vertex="1">
          <mxGeometry width="30" height="30" as="geometry">
            <mxRectangle width="30" height="30" as="alternateBounds" />
          </mxGeometry>
        </mxCell>
        <mxCell id="l-Y4wYKXh6nAWUkN1JSR-5" value="ASISTENCIAS" style="shape=partialRectangle;connectable=0;fillColor=none;top=0;left=0;bottom=0;right=0;align=left;spacingLeft=6;overflow=hidden;" parent="l-Y4wYKXh6nAWUkN1JSR-3" vertex="1">
          <mxGeometry x="30" width="150" height="30" as="geometry">
            <mxRectangle width="150" height="30" as="alternateBounds" />
          </mxGeometry>
        </mxCell>
        <mxCell id="l-Y4wYKXh6nAWUkN1JSR-6" value="" style="shape=tableRow;horizontal=0;startSize=0;swimlaneHead=0;swimlaneBody=0;fillColor=none;collapsible=0;dropTarget=0;points=[[0,0.5],[1,0.5]];portConstraint=eastwest;top=0;left=0;right=0;bottom=0;" parent="fJ4GHWnHUFuhu5mpYdJX-26" vertex="1">
          <mxGeometry y="210" width="180" height="30" as="geometry" />
        </mxCell>
        <mxCell id="l-Y4wYKXh6nAWUkN1JSR-7" value="" style="shape=partialRectangle;connectable=0;fillColor=none;top=0;left=0;bottom=0;right=0;editable=1;overflow=hidden;" parent="l-Y4wYKXh6nAWUkN1JSR-6" vertex="1">
          <mxGeometry width="30" height="30" as="geometry">
            <mxRectangle width="30" height="30" as="alternateBounds" />
          </mxGeometry>
        </mxCell>
        <mxCell id="l-Y4wYKXh6nAWUkN1JSR-8" value="FALTAS" style="shape=partialRectangle;connectable=0;fillColor=none;top=0;left=0;bottom=0;right=0;align=left;spacingLeft=6;overflow=hidden;" parent="l-Y4wYKXh6nAWUkN1JSR-6" vertex="1">
          <mxGeometry x="30" width="150" height="30" as="geometry">
            <mxRectangle width="150" height="30" as="alternateBounds" />
          </mxGeometry>
        </mxCell>
        <mxCell id="fJ4GHWnHUFuhu5mpYdJX-39" value="JUGADORES_POSICIONES" style="shape=table;startSize=30;container=1;collapsible=1;childLayout=tableLayout;fixedRows=1;rowLines=0;fontStyle=1;align=center;resizeLast=1;" parent="3vT56OYeJFOmMg1Qn36p-1" vertex="1">
          <mxGeometry x="80" y="680" width="180" height="100" as="geometry" />
        </mxCell>
        <mxCell id="fJ4GHWnHUFuhu5mpYdJX-40" value="" style="shape=tableRow;horizontal=0;startSize=0;swimlaneHead=0;swimlaneBody=0;fillColor=none;collapsible=0;dropTarget=0;points=[[0,0.5],[1,0.5]];portConstraint=eastwest;top=0;left=0;right=0;bottom=0;" parent="fJ4GHWnHUFuhu5mpYdJX-39" vertex="1">
          <mxGeometry y="30" width="180" height="30" as="geometry" />
        </mxCell>
        <mxCell id="fJ4GHWnHUFuhu5mpYdJX-41" value="FK" style="shape=partialRectangle;connectable=0;fillColor=none;top=0;left=0;bottom=0;right=0;fontStyle=1;overflow=hidden;" parent="fJ4GHWnHUFuhu5mpYdJX-40" vertex="1">
          <mxGeometry width="30" height="30" as="geometry">
            <mxRectangle width="30" height="30" as="alternateBounds" />
          </mxGeometry>
        </mxCell>
        <mxCell id="fJ4GHWnHUFuhu5mpYdJX-42" value="ID_JUGADOR" style="shape=partialRectangle;connectable=0;fillColor=none;top=0;left=0;bottom=0;right=0;align=left;spacingLeft=6;fontStyle=5;overflow=hidden;" parent="fJ4GHWnHUFuhu5mpYdJX-40" vertex="1">
          <mxGeometry x="30" width="150" height="30" as="geometry">
            <mxRectangle width="150" height="30" as="alternateBounds" />
          </mxGeometry>
        </mxCell>
        <mxCell id="fJ4GHWnHUFuhu5mpYdJX-43" value="" style="shape=tableRow;horizontal=0;startSize=0;swimlaneHead=0;swimlaneBody=0;fillColor=none;collapsible=0;dropTarget=0;points=[[0,0.5],[1,0.5]];portConstraint=eastwest;top=0;left=0;right=0;bottom=1;" parent="fJ4GHWnHUFuhu5mpYdJX-39" vertex="1">
          <mxGeometry y="60" width="180" height="30" as="geometry" />
        </mxCell>
        <mxCell id="fJ4GHWnHUFuhu5mpYdJX-44" value="FK" style="shape=partialRectangle;connectable=0;fillColor=none;top=0;left=0;bottom=0;right=0;fontStyle=1;overflow=hidden;" parent="fJ4GHWnHUFuhu5mpYdJX-43" vertex="1">
          <mxGeometry width="30" height="30" as="geometry">
            <mxRectangle width="30" height="30" as="alternateBounds" />
          </mxGeometry>
        </mxCell>
        <mxCell id="fJ4GHWnHUFuhu5mpYdJX-45" value="ID_POSICION" style="shape=partialRectangle;connectable=0;fillColor=none;top=0;left=0;bottom=0;right=0;align=left;spacingLeft=6;fontStyle=5;overflow=hidden;" parent="fJ4GHWnHUFuhu5mpYdJX-43" vertex="1">
          <mxGeometry x="30" width="150" height="30" as="geometry">
            <mxRectangle width="150" height="30" as="alternateBounds" />
          </mxGeometry>
        </mxCell>
        <mxCell id="fJ4GHWnHUFuhu5mpYdJX-52" style="edgeStyle=orthogonalEdgeStyle;rounded=0;orthogonalLoop=1;jettySize=auto;html=1;exitX=0;exitY=0.5;exitDx=0;exitDy=0;entryX=1;entryY=0.5;entryDx=0;entryDy=0;" parent="3vT56OYeJFOmMg1Qn36p-1" source="LlK-PFAm49mic7ZKYAwm-14" target="LlK-PFAm49mic7ZKYAwm-4" edge="1">
          <mxGeometry relative="1" as="geometry" />
        </mxCell>
        <mxCell id="fJ4GHWnHUFuhu5mpYdJX-53" value="1" style="text;html=1;strokeColor=none;fillColor=none;align=center;verticalAlign=middle;whiteSpace=wrap;rounded=0;" parent="3vT56OYeJFOmMg1Qn36p-1" vertex="1">
          <mxGeometry x="560" y="190" width="10" height="10" as="geometry" />
        </mxCell>
        <mxCell id="fJ4GHWnHUFuhu5mpYdJX-54" value="n" style="text;html=1;strokeColor=none;fillColor=none;align=center;verticalAlign=middle;whiteSpace=wrap;rounded=0;" parent="3vT56OYeJFOmMg1Qn36p-1" vertex="1">
          <mxGeometry x="280" y="220" width="10" height="10" as="geometry" />
        </mxCell>
        <mxCell id="fJ4GHWnHUFuhu5mpYdJX-55" style="edgeStyle=orthogonalEdgeStyle;rounded=0;orthogonalLoop=1;jettySize=auto;html=1;exitX=0;exitY=0.5;exitDx=0;exitDy=0;entryX=0;entryY=0.5;entryDx=0;entryDy=0;" parent="3vT56OYeJFOmMg1Qn36p-1" source="LlK-PFAm49mic7ZKYAwm-1" target="fJ4GHWnHUFuhu5mpYdJX-4" edge="1">
          <mxGeometry relative="1" as="geometry" />
        </mxCell>
        <mxCell id="fJ4GHWnHUFuhu5mpYdJX-56" style="edgeStyle=orthogonalEdgeStyle;rounded=0;orthogonalLoop=1;jettySize=auto;html=1;exitX=1;exitY=0.5;exitDx=0;exitDy=0;entryX=0;entryY=0.5;entryDx=0;entryDy=0;" parent="3vT56OYeJFOmMg1Qn36p-1" source="fJ4GHWnHUFuhu5mpYdJX-1" target="fJ4GHWnHUFuhu5mpYdJX-27" edge="1">
          <mxGeometry relative="1" as="geometry" />
        </mxCell>
        <mxCell id="fJ4GHWnHUFuhu5mpYdJX-57" style="edgeStyle=orthogonalEdgeStyle;rounded=0;orthogonalLoop=1;jettySize=auto;html=1;exitX=0;exitY=0.5;exitDx=0;exitDy=0;entryX=1;entryY=0.5;entryDx=0;entryDy=0;" parent="3vT56OYeJFOmMg1Qn36p-1" source="fJ4GHWnHUFuhu5mpYdJX-14" target="fJ4GHWnHUFuhu5mpYdJX-30" edge="1">
          <mxGeometry relative="1" as="geometry" />
        </mxCell>
        <mxCell id="fJ4GHWnHUFuhu5mpYdJX-58" value="1" style="text;html=1;strokeColor=none;fillColor=none;align=center;verticalAlign=middle;whiteSpace=wrap;rounded=0;" parent="3vT56OYeJFOmMg1Qn36p-1" vertex="1">
          <mxGeometry x="66" y="210" width="10" height="10" as="geometry" />
        </mxCell>
        <mxCell id="fJ4GHWnHUFuhu5mpYdJX-59" value="n" style="text;html=1;strokeColor=none;fillColor=none;align=center;verticalAlign=middle;whiteSpace=wrap;rounded=0;" parent="3vT56OYeJFOmMg1Qn36p-1" vertex="1">
          <mxGeometry x="66" y="442" width="10" height="10" as="geometry" />
        </mxCell>
        <mxCell id="fJ4GHWnHUFuhu5mpYdJX-60" value="1" style="text;html=1;strokeColor=none;fillColor=none;align=center;verticalAlign=middle;whiteSpace=wrap;rounded=0;" parent="3vT56OYeJFOmMg1Qn36p-1" vertex="1">
          <mxGeometry x="270" y="417" width="10" height="10" as="geometry" />
        </mxCell>
        <mxCell id="fJ4GHWnHUFuhu5mpYdJX-61" value="n" style="text;html=1;strokeColor=none;fillColor=none;align=center;verticalAlign=middle;whiteSpace=wrap;rounded=0;" parent="3vT56OYeJFOmMg1Qn36p-1" vertex="1">
          <mxGeometry x="310" y="417" width="10" height="10" as="geometry" />
        </mxCell>
        <mxCell id="fJ4GHWnHUFuhu5mpYdJX-62" value="1" style="text;html=1;strokeColor=none;fillColor=none;align=center;verticalAlign=middle;whiteSpace=wrap;rounded=0;" parent="3vT56OYeJFOmMg1Qn36p-1" vertex="1">
          <mxGeometry x="560" y="417" width="10" height="10" as="geometry" />
        </mxCell>
        <mxCell id="fJ4GHWnHUFuhu5mpYdJX-63" value="n" style="text;html=1;strokeColor=none;fillColor=none;align=center;verticalAlign=middle;whiteSpace=wrap;rounded=0;" parent="3vT56OYeJFOmMg1Qn36p-1" vertex="1">
          <mxGeometry x="520" y="447" width="10" height="10" as="geometry" />
        </mxCell>
        <mxCell id="SkVMqYBeeWbmcrSPNlvl-0" value="1" style="text;html=1;strokeColor=none;fillColor=none;align=center;verticalAlign=middle;whiteSpace=wrap;rounded=0;" parent="3vT56OYeJFOmMg1Qn36p-1" vertex="1">
          <mxGeometry x="265" y="442" width="10" height="10" as="geometry" />
        </mxCell>
        <mxCell id="SkVMqYBeeWbmcrSPNlvl-1" value="n" style="text;html=1;strokeColor=none;fillColor=none;align=center;verticalAlign=middle;whiteSpace=wrap;rounded=0;" parent="3vT56OYeJFOmMg1Qn36p-1" vertex="1">
          <mxGeometry x="265" y="709" width="10" height="10" as="geometry" />
        </mxCell>
        <mxCell id="KmgiDOQ4vBAJnPCZh-NC-0" value="* Podría ser una tabla" style="text;html=1;strokeColor=none;fillColor=none;align=center;verticalAlign=middle;whiteSpace=wrap;rounded=0;" parent="3vT56OYeJFOmMg1Qn36p-1" vertex="1">
          <mxGeometry x="580" y="330" width="126" height="30" as="geometry" />
        </mxCell>
        <mxCell id="s-1NCwxWLbrJJM85FHwZ-0" style="edgeStyle=orthogonalEdgeStyle;rounded=0;orthogonalLoop=1;jettySize=auto;html=1;exitX=1;exitY=0.5;exitDx=0;exitDy=0;entryX=1;entryY=0.5;entryDx=0;entryDy=0;" parent="3vT56OYeJFOmMg1Qn36p-1" source="fJ4GHWnHUFuhu5mpYdJX-1" target="fJ4GHWnHUFuhu5mpYdJX-40" edge="1">
          <mxGeometry relative="1" as="geometry" />
        </mxCell>
        <mxCell id="s-1NCwxWLbrJJM85FHwZ-1" value="POSICIONES" style="shape=table;startSize=30;container=1;collapsible=1;childLayout=tableLayout;fixedRows=1;rowLines=0;fontStyle=1;align=center;resizeLast=1;" parent="3vT56OYeJFOmMg1Qn36p-1" vertex="1">
          <mxGeometry x="330" y="680" width="180" height="100" as="geometry" />
        </mxCell>
        <mxCell id="s-1NCwxWLbrJJM85FHwZ-2" value="" style="shape=tableRow;horizontal=0;startSize=0;swimlaneHead=0;swimlaneBody=0;fillColor=none;collapsible=0;dropTarget=0;points=[[0,0.5],[1,0.5]];portConstraint=eastwest;top=0;left=0;right=0;bottom=1;" parent="s-1NCwxWLbrJJM85FHwZ-1" vertex="1">
          <mxGeometry y="30" width="180" height="30" as="geometry" />
        </mxCell>
        <mxCell id="s-1NCwxWLbrJJM85FHwZ-3" value="PK" style="shape=partialRectangle;connectable=0;fillColor=none;top=0;left=0;bottom=0;right=0;fontStyle=1;overflow=hidden;" parent="s-1NCwxWLbrJJM85FHwZ-2" vertex="1">
          <mxGeometry width="30" height="30" as="geometry">
            <mxRectangle width="30" height="30" as="alternateBounds" />
          </mxGeometry>
        </mxCell>
        <mxCell id="s-1NCwxWLbrJJM85FHwZ-4" value="ID_POSICION" style="shape=partialRectangle;connectable=0;fillColor=none;top=0;left=0;bottom=0;right=0;align=left;spacingLeft=6;fontStyle=5;overflow=hidden;" parent="s-1NCwxWLbrJJM85FHwZ-2" vertex="1">
          <mxGeometry x="30" width="150" height="30" as="geometry">
            <mxRectangle width="150" height="30" as="alternateBounds" />
          </mxGeometry>
        </mxCell>
        <mxCell id="s-1NCwxWLbrJJM85FHwZ-5" value="" style="shape=tableRow;horizontal=0;startSize=0;swimlaneHead=0;swimlaneBody=0;fillColor=none;collapsible=0;dropTarget=0;points=[[0,0.5],[1,0.5]];portConstraint=eastwest;top=0;left=0;right=0;bottom=0;" parent="s-1NCwxWLbrJJM85FHwZ-1" vertex="1">
          <mxGeometry y="60" width="180" height="30" as="geometry" />
        </mxCell>
        <mxCell id="s-1NCwxWLbrJJM85FHwZ-6" value="" style="shape=partialRectangle;connectable=0;fillColor=none;top=0;left=0;bottom=0;right=0;editable=1;overflow=hidden;" parent="s-1NCwxWLbrJJM85FHwZ-5" vertex="1">
          <mxGeometry width="30" height="30" as="geometry">
            <mxRectangle width="30" height="30" as="alternateBounds" />
          </mxGeometry>
        </mxCell>
        <mxCell id="s-1NCwxWLbrJJM85FHwZ-7" value="POSICION" style="shape=partialRectangle;connectable=0;fillColor=none;top=0;left=0;bottom=0;right=0;align=left;spacingLeft=6;overflow=hidden;" parent="s-1NCwxWLbrJJM85FHwZ-5" vertex="1">
          <mxGeometry x="30" width="150" height="30" as="geometry">
            <mxRectangle width="150" height="30" as="alternateBounds" />
          </mxGeometry>
        </mxCell>
        <mxCell id="s-1NCwxWLbrJJM85FHwZ-14" style="edgeStyle=orthogonalEdgeStyle;rounded=0;orthogonalLoop=1;jettySize=auto;html=1;exitX=0;exitY=0.5;exitDx=0;exitDy=0;entryX=1;entryY=0.5;entryDx=0;entryDy=0;" parent="3vT56OYeJFOmMg1Qn36p-1" source="s-1NCwxWLbrJJM85FHwZ-2" target="fJ4GHWnHUFuhu5mpYdJX-43" edge="1">
          <mxGeometry relative="1" as="geometry" />
        </mxCell>
        <mxCell id="s-1NCwxWLbrJJM85FHwZ-15" value="1" style="text;html=1;strokeColor=none;fillColor=none;align=center;verticalAlign=middle;whiteSpace=wrap;rounded=0;" parent="3vT56OYeJFOmMg1Qn36p-1" vertex="1">
          <mxGeometry x="305" y="704" width="15" height="20" as="geometry" />
        </mxCell>
        <mxCell id="s-1NCwxWLbrJJM85FHwZ-16" value="n" style="text;html=1;strokeColor=none;fillColor=none;align=center;verticalAlign=middle;whiteSpace=wrap;rounded=0;" parent="3vT56OYeJFOmMg1Qn36p-1" vertex="1">
          <mxGeometry x="270" y="760" width="15" height="20" as="geometry" />
        </mxCell>
        <mxCell id="ddJ87rHQoPetIa_ssNhM-3" style="edgeStyle=orthogonalEdgeStyle;rounded=0;orthogonalLoop=1;jettySize=auto;html=1;exitX=1;exitY=0.5;exitDx=0;exitDy=0;entryX=1;entryY=0.5;entryDx=0;entryDy=0;" edge="1" parent="3vT56OYeJFOmMg1Qn36p-1" source="LlK-PFAm49mic7ZKYAwm-14" target="ddJ87rHQoPetIa_ssNhM-0">
          <mxGeometry relative="1" as="geometry" />
        </mxCell>
        <mxCell id="ddJ87rHQoPetIa_ssNhM-4" value="1" style="text;html=1;strokeColor=none;fillColor=none;align=center;verticalAlign=middle;whiteSpace=wrap;rounded=0;" vertex="1" parent="3vT56OYeJFOmMg1Qn36p-1">
          <mxGeometry x="766" y="192" width="10" height="10" as="geometry" />
        </mxCell>
        <mxCell id="ddJ87rHQoPetIa_ssNhM-6" value="n" style="text;html=1;strokeColor=none;fillColor=none;align=center;verticalAlign=middle;whiteSpace=wrap;rounded=0;" vertex="1" parent="3vT56OYeJFOmMg1Qn36p-1">
          <mxGeometry x="764" y="445" width="10" height="10" as="geometry" />
        </mxCell>
      </root>
    </mxGraphModel>
  </diagram>
</mxfile>
